<svg width="30" height="30" viewBox="0 0 30 30" fill="none" xmlns="http://www.w3.org/2000/svg">
<path d="M8.14646 8.14645C8.34172 7.95118 8.6583 7.95118 8.85356 8.14645L22.2886 21.5815C22.4839 21.7767 22.4839 22.0933 22.2886 22.2886C22.0933 22.4838 21.7767 22.4838 21.5815 22.2886L8.14646 8.85355C7.95119 8.65829 7.9512 8.34171 8.14646 8.14645Z" fill="#919191"/>
<path d="M22.2886 8.14646C22.0933 7.95119 21.7767 7.95119 21.5815 8.14646L8.14645 21.5815C7.95118 21.7767 7.95118 22.0933 8.14645 22.2886C8.34171 22.4839 8.65829 22.4839 8.85355 22.2886L22.2886 8.85356C22.4838 8.6583 22.4838 8.34172 22.2886 8.14646Z" fill="#919191"/>
</svg>
