<svg width="20" height="20" viewBox="0 0 20 20" fill="none" xmlns="http://www.w3.org/2000/svg">
<g clip-path="url(#clip0_12_293)">
<rect width="20" height="20" rx="10" fill="#308FFF"/>
<rect x="5" y="-3" width="20" height="20" rx="10" fill="#111111"/>
<g clip-path="url(#clip1_12_293)">
<path d="M10.5213 13.0767L11.4915 15.7424C11.5734 15.9654 11.5832 16.2084 11.5197 16.4373C11.4561 16.6661 11.3224 16.8692 11.1372 17.0181L10.5149 17.5151C9.76399 18.1142 8.64629 17.793 8.31478 16.8822C8.22781 16.6453 8.21737 16.3871 8.28493 16.144C8.35249 15.9008 8.49465 15.685 8.69136 15.527L10.1661 14.3497C10.3511 14.2009 10.4848 13.9979 10.5484 13.7691C10.6119 13.5403 10.6022 13.2974 10.5205 13.0744L7.49952 4.77444C7.45611 4.65637 7.4532 4.52722 7.49124 4.40731C7.52928 4.2874 7.60611 4.18355 7.70964 4.11209L10.9534 1.87867C10.9799 1.8604 11.0102 1.84844 11.0421 1.84371C11.0739 1.83897 11.1065 1.8416 11.1371 1.85138C11.1678 1.86116 11.1959 1.87783 11.2191 1.90012C11.2423 1.92242 11.2602 1.94973 11.2712 1.97998L11.9657 3.88815C12.0092 4.00655 12.012 4.13607 11.9736 4.25622C11.9352 4.37638 11.8578 4.4803 11.7538 4.55155L9.00445 6.41757C8.79618 6.56007 8.64141 6.76798 8.56464 7.00836C8.48787 7.24875 8.49349 7.50788 8.58061 7.74472L9.05424 9.04601" stroke="#EEEEEE" stroke-linecap="round" stroke-linejoin="round"/>
</g>
</g>
<defs>
<clipPath id="clip0_12_293">
<rect width="20" height="20" rx="10" fill="white"/>
</clipPath>
<clipPath id="clip1_12_293">
<rect width="18" height="18" fill="white" transform="translate(-1.53537 4.62091) rotate(-20)"/>
</clipPath>
</defs>
</svg>
