<svg width="30" height="30" viewBox="0 0 30 30" fill="none" xmlns="http://www.w3.org/2000/svg">
<path d="M5 7.5C5 7.22386 5.22386 7 5.5 7H10.5C10.7761 7 11 7.22386 11 7.5C11 7.77614 10.7761 8 10.5 8H5.5C5.22386 8 5 7.77614 5 7.5Z" fill="#919191"/>
<path d="M5.5 13C5.22386 13 5 12.7761 5 12.5L5 7.5C5 7.22386 5.22386 7 5.5 7C5.77614 7 6 7.22386 6 7.5L6 12.5C6 12.7761 5.77614 13 5.5 13Z" fill="#919191"/>
<path d="M24.5 7C24.7761 7 25 7.22386 25 7.5V12.5C25 12.7761 24.7761 13 24.5 13C24.2239 13 24 12.7761 24 12.5V7.5C24 7.22386 24.2239 7 24.5 7Z" fill="#919191"/>
<path d="M19 7.5C19 7.22386 19.2239 7 19.5 7L24.5 7C24.7761 7 25 7.22386 25 7.5C25 7.77614 24.7761 8 24.5 8H19.5C19.2239 8 19 7.77614 19 7.5Z" fill="#919191"/>
<path d="M25 23.5C25 23.7761 24.7761 24 24.5 24H19.5C19.2239 24 19 23.7761 19 23.5C19 23.2239 19.2239 23 19.5 23H24.5C24.7761 23 25 23.2239 25 23.5Z" fill="#919191"/>
<path d="M24.5 18C24.7761 18 25 18.2239 25 18.5V23.5C25 23.7761 24.7761 24 24.5 24C24.2239 24 24 23.7761 24 23.5V18.5C24 18.2239 24.2239 18 24.5 18Z" fill="#919191"/>
<path d="M5.5 24C5.22386 24 5 23.7761 5 23.5L5 18.5C5 18.2239 5.22386 18 5.5 18C5.77614 18 6 18.2239 6 18.5L6 23.5C6 23.7761 5.77614 24 5.5 24Z" fill="#919191"/>
<path d="M11 23.5C11 23.7761 10.7761 24 10.5 24L5.5 24C5.22386 24 5 23.7761 5 23.5C5 23.2239 5.22386 23 5.5 23L10.5 23C10.7761 23 11 23.2239 11 23.5Z" fill="#919191"/>
</svg>
