<svg width="30" height="30" viewBox="0 0 30 30" fill="none" xmlns="http://www.w3.org/2000/svg">
<path d="M6 8.5C6 8.22386 6.22386 8 6.5 8H23.5C23.7761 8 24 8.22386 24 8.5C24 8.77614 23.7761 9 23.5 9H6.5C6.22386 9 6 8.77614 6 8.5Z" fill="#919191"/>
<path d="M6 14.5C6 14.2239 6.22386 14 6.5 14H17.5C17.7761 14 18 14.2239 18 14.5C18 14.7761 17.7761 15 17.5 15H6.5C6.22386 15 6 14.7761 6 14.5Z" fill="#919191"/>
<path d="M6 21.5C6 21.2239 6.22386 21 6.5 21H14.5C14.7761 21 15 21.2239 15 21.5C15 21.7761 14.7761 22 14.5 22H6.5C6.22386 22 6 21.7761 6 21.5Z" fill="#919191"/>
</svg>
